<svg aria-hidden="true" style="position: absolute; width: 0; height: 0; overflow: hidden;" version="1.1" xmlns="http://www.w3.org/2000/svg" xmlns:xlink="http://www.w3.org/1999/xlink">
<defs>
<symbol id="icon-tik-tok" viewBox="0 0 32 32">
<path fill="#eff3f5" style="fill: var(--color1, #eff3f5)" d="M21.006 11.422c-0.104-0.056-0.205-0.117-0.303-0.183-0.285-0.196-0.546-0.427-0.778-0.687-0.58-0.69-0.797-1.391-0.877-1.881h0.003c-0.067-0.407-0.039-0.67-0.035-0.67h-2.642v10.625c0 0.143 0 0.284-0.006 0.423 0 0.017-0.002 0.033-0.003 0.052 0 0.008 0 0.016-0.002 0.024 0 0.002 0 0.004 0 0.006-0.028 0.381-0.145 0.749-0.342 1.072s-0.467 0.591-0.787 0.779c-0.333 0.197-0.71 0.301-1.093 0.3-1.231 0-2.229-1.044-2.229-2.333s0.998-2.333 2.229-2.333c0.233-0 0.465 0.038 0.686 0.113l0.003-2.798c-0.673-0.090-1.356-0.035-2.007 0.163s-1.255 0.534-1.775 0.987c-0.455 0.411-0.838 0.903-1.131 1.451-0.112 0.2-0.532 1.004-0.583 2.308-0.032 0.74 0.182 1.507 0.284 1.824v0.007c0.064 0.187 0.312 0.824 0.717 1.361 0.326 0.431 0.712 0.809 1.144 1.123v-0.007l0.006 0.007c1.279 0.904 2.697 0.845 2.697 0.845 0.245-0.010 1.068 0 2.002-0.46 1.036-0.51 1.625-1.271 1.625-1.271 0.377-0.454 0.676-0.972 0.886-1.531 0.239-0.654 0.319-1.438 0.319-1.751v-5.637c0.032 0.020 0.459 0.314 0.459 0.314s0.615 0.41 1.575 0.677c0.688 0.19 1.616 0.23 1.616 0.23v-2.728c-0.325 0.037-0.985-0.070-1.66-0.42z"></path>
</symbol>
<symbol id="icon-facebook" viewBox="0 0 32 32">
<path fill="#eff3f5" style="fill: var(--color1, #eff3f5)" d="M18.539 10.657h1.461v-2.544c-0.252-0.035-1.119-0.113-2.128-0.113-2.106 0-3.548 1.325-3.548 3.759v2.241h-2.324v2.844h2.324v7.156h2.849v-7.155h2.23l0.354-2.844h-2.584v-1.959c0.001-0.822 0.222-1.385 1.367-1.385z"></path>
</symbol>
<symbol id="icon-youtube" viewBox="0 0 32 32">
<path fill="#eff3f5" style="fill: var(--color1, #eff3f5)" d="M16.003 10c0.032 0 3.226 0.021 5.341 0.173l0.029 0.003c0.024 0.003 0.050 0.007 0.079 0.010 0.351 0.040 1.080 0.121 1.724 0.799 0.557 0.577 0.692 1.712 0.706 1.84l0.001 0.007c0.005 0.053 0.117 1.316 0.117 2.585v1.186c0 1.268-0.112 2.531-0.117 2.585l-0.003 0.016c-0.016 0.125-0.169 1.235-0.699 1.806-0.636 0.693-1.354 0.768-1.699 0.805-0.033 0.003-0.063 0.007-0.090 0.010l-0.029 0.003c-2.115 0.152-5.309 0.173-5.341 0.173h-0.009c-0.162-0.002-3.992-0.059-5.214-0.175l-0.036-0.005c-0.038-0.007-0.095-0.012-0.16-0.019-0.412-0.047-1.176-0.134-1.781-0.789-0.554-0.577-0.689-1.689-0.703-1.816l-0.001-0.008c-0.005-0.053-0.117-1.317-0.117-2.585v-1.186c0-1.268 0.112-2.532 0.117-2.585l0.003-0.016c0.016-0.125 0.169-1.235 0.699-1.806 0.645-0.703 1.368-0.786 1.715-0.826 0.027-0.003 0.052-0.006 0.074-0.009l0.029-0.003c2.134-0.152 5.329-0.173 5.361-0.173h0.005zM14.829 13.608c-0.214-0.107-0.467-0.103-0.677 0.010s-0.335 0.314-0.335 0.536v3.69c0 0.222 0.125 0.423 0.333 0.536 0.109 0.059 0.229 0.090 0.35 0.090 0.111 0 0.222-0.025 0.324-0.075l3.723-1.829c0.221-0.109 0.359-0.318 0.361-0.547s-0.135-0.441-0.355-0.551l-3.724-1.861z"></path>
</symbol>
<symbol id="icon-instagram" viewBox="0 0 32 32">
<path fill="#eff3f5" style="fill: var(--color1, #eff3f5)" d="M16.003 8c2.084 0 2.352 0.009 3.181 0.048 0.847 0.037 1.439 0.175 1.964 0.378 0.552 0.208 1.055 0.536 1.471 0.957l-0.231 0.234 0.234-0.23 0.152 0.158c0.351 0.383 0.622 0.828 0.807 1.316 0.203 0.522 0.342 1.118 0.379 1.965 0.036 0.826 0.039 1.094 0.039 3.176 0 2.085-0.009 2.352-0.046 3.177-0.037 0.847-0.175 1.44-0.378 1.965-0.432 1.117-1.316 2.001-2.434 2.434-0.522 0.203-1.119 0.34-1.966 0.378-0.826 0.036-1.092 0.046-3.177 0.046s-2.352-0.009-3.177-0.046c-0.847-0.037-1.44-0.175-1.965-0.378-0.553-0.208-1.055-0.537-1.471-0.958l0.232-0.233-0.234 0.23 0.001 0.003c-0.422-0.416-0.751-0.918-0.962-1.477-0.203-0.522-0.34-1.118-0.378-1.963-0.036-0.825-0.046-1.092-0.046-3.177s0.009-2.351 0.048-3.18c0.037-0.847 0.175-1.439 0.378-1.964 0.182-0.484 0.456-0.93 0.805-1.313l0.152-0.158 0.236 0.229-0.232-0.234c0.416-0.425 0.917-0.749 1.474-0.96 0.522-0.203 1.118-0.34 1.965-0.378 0.826-0.036 1.092-0.046 3.177-0.046zM16 12.211c-2.092 0-3.789 1.697-3.789 3.789s1.697 3.79 3.789 3.79c2.092 0 3.79-1.698 3.79-3.79s-1.698-3.789-3.79-3.789zM20.631 9.684c-0.929 0-1.683 0.754-1.684 1.684s0.754 1.685 1.684 1.685c0.93 0 1.685-0.755 1.685-1.685s-0.755-1.684-1.685-1.684z"></path>
</symbol>
<symbol id="icon-arrow-filtering-down" viewBox="0 0 32 32">
<path d="M16 4.5c-0.828 0-1.5 0.672-1.5 1.5v16.189l-3.402-3.656c-0.564-0.606-1.513-0.64-2.119-0.076s-0.641 1.515-0.076 2.121l7.098 7.623 7.098-7.623c0.565-0.606 0.53-1.556-0.076-2.121s-1.555-0.53-2.119 0.076l-3.402 3.656v-16.189c0-0.828-0.672-1.5-1.5-1.5z"></path>
</symbol>
<symbol id="icon-pin" viewBox="0 0 32 32">
<path d="M26.501 8.841c2.443 2.284 3.233 5.409 1.763 6.981s-4.641 0.994-7.084-1.29c-2.443-2.284-3.233-5.409-1.763-6.981s4.641-0.994 7.084 1.29z"></path>
<path d="M9.498 14.359c1.226-1.311 3.394-1.45 5.682-0.585l-2.193 1.812c-1.188 1.271-0.549 3.799 1.427 5.645s4.54 2.313 5.728 1.042l1.932-2.041c1.006 2.217 1.009 4.379-0.212 5.686-1.956 2.091-6.309 1.2-9.722-1.992s-4.596-7.474-2.641-9.566z"></path>
<path d="M15.318 20.386c1.578 1.476 3.591 1.888 4.495 0.921 0.616-0.858 2.131-2.949 3.261-4.455-2.635-1.506-4.235-3.451-4.706-4.235l-4.271 3.347c-0.904 0.967-0.357 2.947 1.221 4.423z"></path>
<path d="M11.779 25.322c-0.471-0.314-1.506-1.129-1.882-1.882l-2.824 3.294-0.502 0.753c-0.557 0.835 0.406 1.846 1.267 1.329l1.117-0.67 2.824-2.824z"></path>
</symbol>
<symbol id="icon-arrow-left" viewBox="0 0 53 32">
<path fill="none" stroke="#eff3f5" style="stroke: var(--color1, #eff3f5)" stroke-linejoin="miter" stroke-linecap="butt" stroke-miterlimit="4" stroke-width="5.3333" d="M78.667 15.999l-73.335 0M5.332 16l13.317 13.317M5.332 16l13.317-13.317"></path>
</symbol>
<symbol id="icon-arrow-right" viewBox="0 0 53 32">
<path fill="none" stroke="#eff3f5" style="stroke: var(--color1, #eff3f5)" stroke-linejoin="miter" stroke-linecap="butt" stroke-miterlimit="4" stroke-width="5.3333" d="M-25.334 15.999l73.335 0M48.001 16l-13.317 13.317M48.001 16l-13.317-13.317"></path>
</symbol>
</defs>
</svg>
